<mxfile host="app.diagrams.net" modified="2024-05-08T18:52:47.223Z" agent="Mozilla/5.0 (Windows NT 10.0; Win64; x64) AppleWebKit/537.36 (KHTML, like Gecko) Chrome/124.0.0.0 Safari/537.36" etag="OM4UfPiafHFzCKuk69Zm" version="22.1.14" type="github">
  <diagram id="C5RBs43oDa-KdzZeNtuy" name="Page-1">
    <mxGraphModel dx="1381" dy="809" grid="1" gridSize="10" guides="1" tooltips="1" connect="1" arrows="1" fold="1" page="1" pageScale="1" pageWidth="827" pageHeight="1169" math="0" shadow="0">
      <root>
        <mxCell id="WIyWlLk6GJQsqaUBKTNV-0" />
        <mxCell id="WIyWlLk6GJQsqaUBKTNV-1" parent="WIyWlLk6GJQsqaUBKTNV-0" />
        <mxCell id="zkfFHV4jXpPFQw0GAbJ--0" value="DicomClientServer" style="swimlane;fontStyle=2;align=center;verticalAlign=top;childLayout=stackLayout;horizontal=1;startSize=26;horizontalStack=0;resizeParent=1;resizeLast=0;collapsible=1;marginBottom=0;rounded=0;shadow=0;strokeWidth=1;fontSize=16;" parent="WIyWlLk6GJQsqaUBKTNV-1" vertex="1">
          <mxGeometry x="1940" y="300" width="300" height="310" as="geometry">
            <mxRectangle x="230" y="140" width="160" height="26" as="alternateBounds" />
          </mxGeometry>
        </mxCell>
        <mxCell id="zkfFHV4jXpPFQw0GAbJ--1" value="- session" style="text;align=left;verticalAlign=top;spacingLeft=4;spacingRight=4;overflow=hidden;rotatable=0;points=[[0,0.5],[1,0.5]];portConstraint=eastwest;fontSize=16;" parent="zkfFHV4jXpPFQw0GAbJ--0" vertex="1">
          <mxGeometry y="26" width="300" height="26" as="geometry" />
        </mxCell>
        <mxCell id="zkfFHV4jXpPFQw0GAbJ--2" value="- base_url" style="text;align=left;verticalAlign=top;spacingLeft=4;spacingRight=4;overflow=hidden;rotatable=0;points=[[0,0.5],[1,0.5]];portConstraint=eastwest;rounded=0;shadow=0;html=0;fontSize=16;" parent="zkfFHV4jXpPFQw0GAbJ--0" vertex="1">
          <mxGeometry y="52" width="300" height="26" as="geometry" />
        </mxCell>
        <mxCell id="zkfFHV4jXpPFQw0GAbJ--3" value="- auth" style="text;align=left;verticalAlign=top;spacingLeft=4;spacingRight=4;overflow=hidden;rotatable=0;points=[[0,0.5],[1,0.5]];portConstraint=eastwest;rounded=0;shadow=0;html=0;fontSize=16;" parent="zkfFHV4jXpPFQw0GAbJ--0" vertex="1">
          <mxGeometry y="78" width="300" height="26" as="geometry" />
        </mxCell>
        <mxCell id="zkfFHV4jXpPFQw0GAbJ--4" value="" style="line;html=1;strokeWidth=1;align=left;verticalAlign=middle;spacingTop=-1;spacingLeft=3;spacingRight=3;rotatable=0;labelPosition=right;points=[];portConstraint=eastwest;" parent="zkfFHV4jXpPFQw0GAbJ--0" vertex="1">
          <mxGeometry y="104" width="300" height="8" as="geometry" />
        </mxCell>
        <mxCell id="zkfFHV4jXpPFQw0GAbJ--5" value="+ DicomClientServer(session,&#xa;Â base_url, auth)&#xa;+ get_studies()&#xa;+ get_series()&#xa;+ get_instance_by_ID(instanceID)&#xa;+ get_dicom_file_data(instance)&#xa;+ get_dicom_file_data_by_ID(instanceID)&#xa;+ get_study_name(study)&#xa;+ get_changes()&#xa;&#xa;" style="text;align=left;verticalAlign=top;spacingLeft=4;spacingRight=4;overflow=hidden;rotatable=0;points=[[0,0.5],[1,0.5]];portConstraint=eastwest;fontSize=16;" parent="zkfFHV4jXpPFQw0GAbJ--0" vertex="1">
          <mxGeometry y="112" width="300" height="198" as="geometry" />
        </mxCell>
        <mxCell id="2WxBSfyp9lYpHI9Do767-2" value="DicomDownloader" style="swimlane;fontStyle=1;align=center;verticalAlign=top;childLayout=stackLayout;horizontal=1;startSize=26;horizontalStack=0;resizeParent=1;resizeParentMax=0;resizeLast=0;collapsible=1;marginBottom=0;whiteSpace=wrap;html=1;fontSize=16;" vertex="1" parent="WIyWlLk6GJQsqaUBKTNV-1">
          <mxGeometry x="1450" y="550" width="300" height="280" as="geometry" />
        </mxCell>
        <mxCell id="2WxBSfyp9lYpHI9Do767-3" value="- session&lt;br&gt;- base_url&lt;br&gt;- auth&lt;br&gt;- dicom_client&lt;br&gt;- dicom_processor" style="text;strokeColor=none;fillColor=none;align=left;verticalAlign=top;spacingLeft=4;spacingRight=4;overflow=hidden;rotatable=0;points=[[0,0.5],[1,0.5]];portConstraint=eastwest;whiteSpace=wrap;html=1;fontSize=16;" vertex="1" parent="2WxBSfyp9lYpHI9Do767-2">
          <mxGeometry y="26" width="300" height="114" as="geometry" />
        </mxCell>
        <mxCell id="2WxBSfyp9lYpHI9Do767-4" value="" style="line;strokeWidth=1;fillColor=none;align=left;verticalAlign=middle;spacingTop=-1;spacingLeft=3;spacingRight=3;rotatable=0;labelPosition=right;points=[];portConstraint=eastwest;strokeColor=inherit;fontSize=16;" vertex="1" parent="2WxBSfyp9lYpHI9Do767-2">
          <mxGeometry y="140" width="300" height="8" as="geometry" />
        </mxCell>
        <mxCell id="2WxBSfyp9lYpHI9Do767-5" value="+ __intit__(session, base_url, auth)&lt;br&gt;+ is_study_name_match(studies, name)&lt;br&gt;+ get_studies_by_name(studies, name)&lt;br&gt;+ get_all_studies(studies)&lt;br&gt;+ load_instance_by_ID(instanceID)" style="text;strokeColor=none;fillColor=none;align=left;verticalAlign=top;spacingLeft=4;spacingRight=4;overflow=hidden;rotatable=0;points=[[0,0.5],[1,0.5]];portConstraint=eastwest;whiteSpace=wrap;html=1;fontSize=16;" vertex="1" parent="2WxBSfyp9lYpHI9Do767-2">
          <mxGeometry y="148" width="300" height="132" as="geometry" />
        </mxCell>
        <mxCell id="2WxBSfyp9lYpHI9Do767-8" value="1" style="endArrow=open;html=1;endSize=12;startArrow=diamondThin;startSize=14;startFill=1;edgeStyle=orthogonalEdgeStyle;align=left;verticalAlign=bottom;rounded=0;fontSize=12;curved=1;exitX=1.017;exitY=0.125;exitDx=0;exitDy=0;exitPerimeter=0;entryX=-0.005;entryY=0.045;entryDx=0;entryDy=0;entryPerimeter=0;" edge="1" parent="WIyWlLk6GJQsqaUBKTNV-1" source="2WxBSfyp9lYpHI9Do767-5" target="zkfFHV4jXpPFQw0GAbJ--5">
          <mxGeometry x="-1" y="3" relative="1" as="geometry">
            <mxPoint x="760" y="330" as="sourcePoint" />
            <mxPoint x="920" y="330" as="targetPoint" />
          </mxGeometry>
        </mxCell>
        <mxCell id="2WxBSfyp9lYpHI9Do767-9" value="DicomFileWriter" style="swimlane;fontStyle=1;align=center;verticalAlign=top;childLayout=stackLayout;horizontal=1;startSize=26;horizontalStack=0;resizeParent=1;resizeParentMax=0;resizeLast=0;collapsible=1;marginBottom=0;whiteSpace=wrap;html=1;fontSize=16;" vertex="1" parent="WIyWlLk6GJQsqaUBKTNV-1">
          <mxGeometry x="2210" y="920" width="290" height="90" as="geometry" />
        </mxCell>
        <mxCell id="2WxBSfyp9lYpHI9Do767-11" value="" style="line;strokeWidth=1;fillColor=none;align=left;verticalAlign=middle;spacingTop=-1;spacingLeft=3;spacingRight=3;rotatable=0;labelPosition=right;points=[];portConstraint=eastwest;strokeColor=inherit;fontSize=16;" vertex="1" parent="2WxBSfyp9lYpHI9Do767-9">
          <mxGeometry y="26" width="290" height="8" as="geometry" />
        </mxCell>
        <mxCell id="2WxBSfyp9lYpHI9Do767-12" value="+write_dicom_file_data(dicom_file_data, name, number)" style="text;strokeColor=none;fillColor=none;align=left;verticalAlign=top;spacingLeft=4;spacingRight=4;overflow=hidden;rotatable=0;points=[[0,0.5],[1,0.5]];portConstraint=eastwest;whiteSpace=wrap;html=1;fontSize=16;" vertex="1" parent="2WxBSfyp9lYpHI9Do767-9">
          <mxGeometry y="34" width="290" height="56" as="geometry" />
        </mxCell>
        <mxCell id="2WxBSfyp9lYpHI9Do767-13" value="DicomHandler" style="swimlane;fontStyle=1;align=center;verticalAlign=top;childLayout=stackLayout;horizontal=1;startSize=26;horizontalStack=0;resizeParent=1;resizeParentMax=0;resizeLast=0;collapsible=1;marginBottom=0;whiteSpace=wrap;html=1;fontSize=16;" vertex="1" parent="WIyWlLk6GJQsqaUBKTNV-1">
          <mxGeometry x="420" y="750" width="240" height="260" as="geometry" />
        </mxCell>
        <mxCell id="2WxBSfyp9lYpHI9Do767-14" value="- session&lt;br&gt;- auth&lt;br&gt;- base_url&lt;br&gt;-ds" style="text;strokeColor=none;fillColor=none;align=left;verticalAlign=top;spacingLeft=4;spacingRight=4;overflow=hidden;rotatable=0;points=[[0,0.5],[1,0.5]];portConstraint=eastwest;whiteSpace=wrap;html=1;fontSize=16;" vertex="1" parent="2WxBSfyp9lYpHI9Do767-13">
          <mxGeometry y="26" width="240" height="94" as="geometry" />
        </mxCell>
        <mxCell id="2WxBSfyp9lYpHI9Do767-15" value="" style="line;strokeWidth=1;fillColor=none;align=left;verticalAlign=middle;spacingTop=-1;spacingLeft=3;spacingRight=3;rotatable=0;labelPosition=right;points=[];portConstraint=eastwest;strokeColor=inherit;fontSize=16;" vertex="1" parent="2WxBSfyp9lYpHI9Do767-13">
          <mxGeometry y="120" width="240" height="8" as="geometry" />
        </mxCell>
        <mxCell id="2WxBSfyp9lYpHI9Do767-16" value="+ __init__(session, base_url, auth)&lt;br&gt;+ handle_dicom1(directory, directory1)&lt;br&gt;+ handle_dicom(directory, directory1)" style="text;strokeColor=none;fillColor=none;align=left;verticalAlign=top;spacingLeft=4;spacingRight=4;overflow=hidden;rotatable=0;points=[[0,0.5],[1,0.5]];portConstraint=eastwest;whiteSpace=wrap;html=1;fontSize=16;" vertex="1" parent="2WxBSfyp9lYpHI9Do767-13">
          <mxGeometry y="128" width="240" height="132" as="geometry" />
        </mxCell>
        <mxCell id="2WxBSfyp9lYpHI9Do767-17" value="DicomListener" style="swimlane;fontStyle=1;align=center;verticalAlign=top;childLayout=stackLayout;horizontal=1;startSize=26;horizontalStack=0;resizeParent=1;resizeParentMax=0;resizeLast=0;collapsible=1;marginBottom=0;whiteSpace=wrap;html=1;fontSize=16;" vertex="1" parent="WIyWlLk6GJQsqaUBKTNV-1">
          <mxGeometry x="600" y="1030" width="340" height="380" as="geometry" />
        </mxCell>
        <mxCell id="2WxBSfyp9lYpHI9Do767-18" value="- path_to_dicoms_dir_handled&lt;br&gt;- path_to_dicoms_dir_new_file&lt;br&gt;- auth&lt;br&gt;- session&lt;br&gt;- base_url&lt;br&gt;- dicom_manager&lt;br&gt;- last_content&lt;br&gt;- start_time" style="text;strokeColor=none;fillColor=none;align=left;verticalAlign=top;spacingLeft=4;spacingRight=4;overflow=hidden;rotatable=0;points=[[0,0.5],[1,0.5]];portConstraint=eastwest;whiteSpace=wrap;html=1;fontSize=16;" vertex="1" parent="2WxBSfyp9lYpHI9Do767-17">
          <mxGeometry y="26" width="340" height="174" as="geometry" />
        </mxCell>
        <mxCell id="2WxBSfyp9lYpHI9Do767-19" value="" style="line;strokeWidth=1;fillColor=none;align=left;verticalAlign=middle;spacingTop=-1;spacingLeft=3;spacingRight=3;rotatable=0;labelPosition=right;points=[];portConstraint=eastwest;strokeColor=inherit;fontSize=16;" vertex="1" parent="2WxBSfyp9lYpHI9Do767-17">
          <mxGeometry y="200" width="340" height="8" as="geometry" />
        </mxCell>
        <mxCell id="2WxBSfyp9lYpHI9Do767-20" value="+ __init__(session, base_url, auth, dicom_manager)&lt;br&gt;+ reset_dir(path_to_dicoms_dir)&lt;br&gt;+ listen()&lt;br&gt;+ set_path_to_dicom_dir_handled(path)&lt;br&gt;+ set_path_to_dicom_dir_new_file(path)&lt;br&gt;+ get_path_to_dicom_dir_handled()&lt;br&gt;+ get_path_to_dicom_dir_new_file()" style="text;strokeColor=none;fillColor=none;align=left;verticalAlign=top;spacingLeft=4;spacingRight=4;overflow=hidden;rotatable=0;points=[[0,0.5],[1,0.5]];portConstraint=eastwest;whiteSpace=wrap;html=1;fontSize=16;" vertex="1" parent="2WxBSfyp9lYpHI9Do767-17">
          <mxGeometry y="208" width="340" height="172" as="geometry" />
        </mxCell>
        <mxCell id="2WxBSfyp9lYpHI9Do767-21" value="DicomManager" style="swimlane;fontStyle=1;align=center;verticalAlign=top;childLayout=stackLayout;horizontal=1;startSize=26;horizontalStack=0;resizeParent=1;resizeParentMax=0;resizeLast=0;collapsible=1;marginBottom=0;whiteSpace=wrap;html=1;fontSize=16;" vertex="1" parent="WIyWlLk6GJQsqaUBKTNV-1">
          <mxGeometry x="1030" y="560" width="330" height="410" as="geometry" />
        </mxCell>
        <mxCell id="2WxBSfyp9lYpHI9Do767-22" value="- session&lt;br&gt;- base_url&lt;br&gt;- auth&lt;br&gt;- dicom_uploader&lt;br&gt;- dicom_downloader&lt;br&gt;- dicom_client&lt;br&gt;- dicom_processor&lt;br&gt;- dicom_handler&lt;br&gt;- dicom_listener" style="text;strokeColor=none;fillColor=none;align=left;verticalAlign=top;spacingLeft=4;spacingRight=4;overflow=hidden;rotatable=0;points=[[0,0.5],[1,0.5]];portConstraint=eastwest;whiteSpace=wrap;html=1;fontSize=16;" vertex="1" parent="2WxBSfyp9lYpHI9Do767-21">
          <mxGeometry y="26" width="330" height="194" as="geometry" />
        </mxCell>
        <mxCell id="2WxBSfyp9lYpHI9Do767-23" value="" style="line;strokeWidth=1;fillColor=none;align=left;verticalAlign=middle;spacingTop=-1;spacingLeft=3;spacingRight=3;rotatable=0;labelPosition=right;points=[];portConstraint=eastwest;strokeColor=inherit;fontSize=16;" vertex="1" parent="2WxBSfyp9lYpHI9Do767-21">
          <mxGeometry y="220" width="330" height="8" as="geometry" />
        </mxCell>
        <mxCell id="2WxBSfyp9lYpHI9Do767-24" value="+ __init__(session, base_url, auth)&lt;br&gt;+ upload_dicom_file(filepath)&lt;br&gt;+ upload_all_dicom_files(dicom_dir)&lt;br&gt;+ get_studies_by_name(name)&lt;br&gt;+ get_all_studies()&lt;br&gt;+ get_new_instance(instanceID)&lt;br&gt;+ handle_new_instance()&lt;br&gt;+ start_listening()" style="text;strokeColor=none;fillColor=none;align=left;verticalAlign=top;spacingLeft=4;spacingRight=4;overflow=hidden;rotatable=0;points=[[0,0.5],[1,0.5]];portConstraint=eastwest;whiteSpace=wrap;html=1;fontSize=16;" vertex="1" parent="2WxBSfyp9lYpHI9Do767-21">
          <mxGeometry y="228" width="330" height="182" as="geometry" />
        </mxCell>
        <mxCell id="2WxBSfyp9lYpHI9Do767-25" value="DicomProcessor" style="swimlane;fontStyle=1;align=center;verticalAlign=top;childLayout=stackLayout;horizontal=1;startSize=26;horizontalStack=0;resizeParent=1;resizeParentMax=0;resizeLast=0;collapsible=1;marginBottom=0;whiteSpace=wrap;html=1;fontSize=16;" vertex="1" parent="WIyWlLk6GJQsqaUBKTNV-1">
          <mxGeometry x="1800" y="720" width="290" height="320" as="geometry" />
        </mxCell>
        <mxCell id="2WxBSfyp9lYpHI9Do767-26" value="- session&lt;br&gt;- base_url&lt;br&gt;- auth&lt;br&gt;- dicom_client&lt;br&gt;- dicom_filewriter" style="text;strokeColor=none;fillColor=none;align=left;verticalAlign=top;spacingLeft=4;spacingRight=4;overflow=hidden;rotatable=0;points=[[0,0.5],[1,0.5]];portConstraint=eastwest;whiteSpace=wrap;html=1;fontSize=16;" vertex="1" parent="2WxBSfyp9lYpHI9Do767-25">
          <mxGeometry y="26" width="290" height="114" as="geometry" />
        </mxCell>
        <mxCell id="2WxBSfyp9lYpHI9Do767-27" value="" style="line;strokeWidth=1;fillColor=none;align=left;verticalAlign=middle;spacingTop=-1;spacingLeft=3;spacingRight=3;rotatable=0;labelPosition=right;points=[];portConstraint=eastwest;strokeColor=inherit;fontSize=16;" vertex="1" parent="2WxBSfyp9lYpHI9Do767-25">
          <mxGeometry y="140" width="290" height="8" as="geometry" />
        </mxCell>
        <mxCell id="2WxBSfyp9lYpHI9Do767-28" value="+ __init__(session, base_url, auth)&lt;br&gt;+ process_study(study, name)&lt;br&gt;+ process_series(series, name)&lt;br&gt;+ process_instance(instance, name)&lt;br&gt;+ process_new_instance(instanceID)&lt;br&gt;+ process_count_instance(series)&lt;br&gt;+ get_number_studies()&lt;br&gt;+ get_list_instances()" style="text;strokeColor=none;fillColor=none;align=left;verticalAlign=top;spacingLeft=4;spacingRight=4;overflow=hidden;rotatable=0;points=[[0,0.5],[1,0.5]];portConstraint=eastwest;whiteSpace=wrap;html=1;fontSize=16;" vertex="1" parent="2WxBSfyp9lYpHI9Do767-25">
          <mxGeometry y="148" width="290" height="172" as="geometry" />
        </mxCell>
        <mxCell id="2WxBSfyp9lYpHI9Do767-29" value="DicomUploader" style="swimlane;fontStyle=1;align=center;verticalAlign=top;childLayout=stackLayout;horizontal=1;startSize=26;horizontalStack=0;resizeParent=1;resizeParentMax=0;resizeLast=0;collapsible=1;marginBottom=0;whiteSpace=wrap;html=1;fontSize=16;" vertex="1" parent="WIyWlLk6GJQsqaUBKTNV-1">
          <mxGeometry x="110" y="480" width="280" height="200" as="geometry" />
        </mxCell>
        <mxCell id="2WxBSfyp9lYpHI9Do767-30" value="- session&lt;br&gt;- base_url&lt;br&gt;- auth" style="text;strokeColor=none;fillColor=none;align=left;verticalAlign=top;spacingLeft=4;spacingRight=4;overflow=hidden;rotatable=0;points=[[0,0.5],[1,0.5]];portConstraint=eastwest;whiteSpace=wrap;html=1;fontSize=16;" vertex="1" parent="2WxBSfyp9lYpHI9Do767-29">
          <mxGeometry y="26" width="280" height="74" as="geometry" />
        </mxCell>
        <mxCell id="2WxBSfyp9lYpHI9Do767-31" value="" style="line;strokeWidth=1;fillColor=none;align=left;verticalAlign=middle;spacingTop=-1;spacingLeft=3;spacingRight=3;rotatable=0;labelPosition=right;points=[];portConstraint=eastwest;strokeColor=inherit;fontSize=16;" vertex="1" parent="2WxBSfyp9lYpHI9Do767-29">
          <mxGeometry y="100" width="280" height="8" as="geometry" />
        </mxCell>
        <mxCell id="2WxBSfyp9lYpHI9Do767-32" value="+ __init__(session, base_url, auth)&lt;br&gt;+ upload_dicom_file(filepath)&lt;br&gt;+ upload_all_dicom_files(dicom_dir)" style="text;strokeColor=none;fillColor=none;align=left;verticalAlign=top;spacingLeft=4;spacingRight=4;overflow=hidden;rotatable=0;points=[[0,0.5],[1,0.5]];portConstraint=eastwest;whiteSpace=wrap;html=1;fontSize=16;" vertex="1" parent="2WxBSfyp9lYpHI9Do767-29">
          <mxGeometry y="108" width="280" height="92" as="geometry" />
        </mxCell>
        <mxCell id="2WxBSfyp9lYpHI9Do767-33" value="1" style="endArrow=open;html=1;endSize=12;startArrow=diamondThin;startSize=14;startFill=1;edgeStyle=orthogonalEdgeStyle;align=left;verticalAlign=bottom;rounded=0;fontSize=12;curved=1;exitX=1.009;exitY=0.118;exitDx=0;exitDy=0;exitPerimeter=0;entryX=0.009;entryY=0.016;entryDx=0;entryDy=0;entryPerimeter=0;" edge="1" parent="WIyWlLk6GJQsqaUBKTNV-1" source="2WxBSfyp9lYpHI9Do767-5" target="2WxBSfyp9lYpHI9Do767-28">
          <mxGeometry x="-1" y="3" relative="1" as="geometry">
            <mxPoint x="1100" y="260" as="sourcePoint" />
            <mxPoint x="1260" y="260" as="targetPoint" />
          </mxGeometry>
        </mxCell>
        <mxCell id="2WxBSfyp9lYpHI9Do767-34" value="1" style="endArrow=open;html=1;endSize=12;startArrow=diamondThin;startSize=14;startFill=1;edgeStyle=orthogonalEdgeStyle;align=left;verticalAlign=bottom;rounded=0;fontSize=12;curved=1;exitX=1.008;exitY=0.912;exitDx=0;exitDy=0;exitPerimeter=0;entryX=0;entryY=0.25;entryDx=0;entryDy=0;" edge="1" parent="WIyWlLk6GJQsqaUBKTNV-1" source="2WxBSfyp9lYpHI9Do767-26" target="2WxBSfyp9lYpHI9Do767-9">
          <mxGeometry x="-1" y="3" relative="1" as="geometry">
            <mxPoint x="1630" y="260" as="sourcePoint" />
            <mxPoint x="1790" y="260" as="targetPoint" />
          </mxGeometry>
        </mxCell>
        <mxCell id="2WxBSfyp9lYpHI9Do767-35" value="1" style="endArrow=open;html=1;endSize=12;startArrow=diamondThin;startSize=14;startFill=1;edgeStyle=orthogonalEdgeStyle;align=left;verticalAlign=bottom;rounded=0;fontSize=12;curved=1;exitX=-0.007;exitY=0.011;exitDx=0;exitDy=0;exitPerimeter=0;entryX=1;entryY=0.5;entryDx=0;entryDy=0;" edge="1" parent="WIyWlLk6GJQsqaUBKTNV-1" source="2WxBSfyp9lYpHI9Do767-24" target="2WxBSfyp9lYpHI9Do767-18">
          <mxGeometry x="-1" y="3" relative="1" as="geometry">
            <mxPoint x="980" y="660" as="sourcePoint" />
            <mxPoint x="1140" y="660" as="targetPoint" />
          </mxGeometry>
        </mxCell>
        <mxCell id="2WxBSfyp9lYpHI9Do767-36" value="1" style="endArrow=open;html=1;endSize=12;startArrow=diamondThin;startSize=14;startFill=0;edgeStyle=orthogonalEdgeStyle;align=left;verticalAlign=bottom;rounded=0;fontSize=12;curved=1;exitX=1;exitY=0.5;exitDx=0;exitDy=0;entryX=0;entryY=0.394;entryDx=0;entryDy=0;entryPerimeter=0;" edge="1" parent="WIyWlLk6GJQsqaUBKTNV-1" source="2WxBSfyp9lYpHI9Do767-22" target="2WxBSfyp9lYpHI9Do767-5">
          <mxGeometry x="-1" y="3" relative="1" as="geometry">
            <mxPoint x="680" y="660" as="sourcePoint" />
            <mxPoint x="840" y="660" as="targetPoint" />
          </mxGeometry>
        </mxCell>
        <mxCell id="2WxBSfyp9lYpHI9Do767-37" value="1" style="endArrow=open;html=1;endSize=12;startArrow=diamondThin;startSize=14;startFill=1;edgeStyle=orthogonalEdgeStyle;align=left;verticalAlign=bottom;rounded=0;fontSize=12;curved=1;entryX=1.003;entryY=1;entryDx=0;entryDy=0;entryPerimeter=0;exitX=0;exitY=0.011;exitDx=0;exitDy=0;exitPerimeter=0;" edge="1" parent="WIyWlLk6GJQsqaUBKTNV-1" source="2WxBSfyp9lYpHI9Do767-24" target="2WxBSfyp9lYpHI9Do767-14">
          <mxGeometry x="-1" y="3" relative="1" as="geometry">
            <mxPoint x="580" y="1060" as="sourcePoint" />
            <mxPoint x="740" y="1060" as="targetPoint" />
          </mxGeometry>
        </mxCell>
        <mxCell id="2WxBSfyp9lYpHI9Do767-39" value="1" style="endArrow=open;html=1;endSize=12;startArrow=diamondThin;startSize=14;startFill=0;edgeStyle=orthogonalEdgeStyle;align=left;verticalAlign=bottom;rounded=0;fontSize=12;curved=1;entryX=1.007;entryY=0.811;entryDx=0;entryDy=0;entryPerimeter=0;exitX=0;exitY=0.5;exitDx=0;exitDy=0;" edge="1" parent="WIyWlLk6GJQsqaUBKTNV-1" source="2WxBSfyp9lYpHI9Do767-22" target="2WxBSfyp9lYpHI9Do767-30">
          <mxGeometry x="-1" y="3" relative="1" as="geometry">
            <mxPoint x="490" y="660" as="sourcePoint" />
            <mxPoint x="650" y="660" as="targetPoint" />
          </mxGeometry>
        </mxCell>
      </root>
    </mxGraphModel>
  </diagram>
</mxfile>
